<?xml version="1.0"?><svg width="640" height="480" xmlns="http://www.w3.org/2000/svg">
 <metadata id="metadata7">image/svg+xmlAnimal footprintAnimal footprint traces foot print palm</metadata>
 <g>
  <title>Layer 1</title>
  <g id="layer1">
   <path fill="#ffdd00" id="path2466" d="m273.899841,536.756165c0.865875,-1.401001 -5.044159,-2.207703 -16.174805,-2.207703c-11.264481,0 -19.801422,-1.17981 -23.86261,-3.297852c-3.477875,-1.813843 -8.061951,-3.304016 -10.186813,-3.311462c-2.124878,-0.007507 -3.863403,-1.00708 -3.863403,-2.221313c0,-1.214172 -2.018066,-2.207642 -4.484604,-2.207642c-2.466522,0 -5.056442,-1.490173 -5.755341,-3.311462c-0.698898,-1.82135 -2.435303,-3.311523 -3.858673,-3.311523c-1.423355,0 -4.049042,-2.108582 -5.834869,-4.685791c-1.785797,-2.577209 -4.488739,-5.983307 -6.0065,-7.569122c-1.517761,-1.585815 -2.759567,-4.006317 -2.759567,-5.378937c0,-1.372589 -0.86937,-1.958344 -1.931931,-1.301636c-1.062546,0.656677 -2.564453,-2.761749 -3.33757,-7.596527c-0.773102,-4.834778 -2.38736,-8.790497 -3.587219,-8.790497c-2.700699,0 -2.947113,-32.381165 -0.259064,-34.04248c1.057373,-0.653503 2.549408,-4.322632 3.315613,-8.153625c0.76619,-3.830994 3.236008,-8.570557 5.48848,-10.532318c2.252472,-1.961761 4.805771,-5.816528 5.673981,-8.566162c0.86821,-2.749603 2.394516,-4.494995 3.391785,-3.878662c0.997269,0.616364 2.456085,-1.440796 3.241837,-4.571411c1.247437,-4.970245 4.701141,-8.950531 16.151733,-18.614441c1.517761,-1.280914 2.759567,-4.276703 2.759567,-6.657257c0,-2.380554 0.895905,-4.328278 1.990891,-4.328278c1.095001,0 2.682709,-5.960663 3.528259,-13.245941c0.845551,-7.285278 2.433258,-13.245941 3.528259,-13.245941c1.094986,0 1.990891,-1.421082 1.990891,-3.157959c0,-1.736877 2.210388,-3.475403 4.911957,-3.863403c2.701584,-0.388 6.164017,-3.189056 7.694275,-6.224609c1.530258,-3.035522 2.796921,-4.575348 2.814835,-3.421844c0.017899,1.153473 1.22467,0.905121 2.681732,-0.55191c1.457047,-1.457062 4.437378,-2.6492 6.622971,-2.6492c2.185577,0 3.973785,-1.278778 3.973785,-2.841705c0,-1.562897 2.06662,-2.997345 4.592499,-3.187622c2.525879,-0.190277 7.131866,-2.885284 10.235504,-5.988953c3.424805,-3.424774 8.128082,-5.643005 11.964935,-5.643005c3.477051,0 6.32193,-0.993439 6.32193,-2.207642c0,-1.214203 3.477081,-2.207672 7.726807,-2.207672c4.249756,0 7.726807,0.993469 7.726807,2.207672c0,1.214203 4.47052,2.207642 9.934479,2.207642c6.097321,0 9.934448,0.994812 9.934448,2.575623c0,1.416565 0.620605,1.955017 1.379089,1.196503c2.036804,-2.036774 20.00766,8.084747 26.180573,14.745422c2.939423,3.171692 6.443909,5.766693 7.78775,5.766693c1.343842,0 1.879333,0.912598 1.189972,2.028046c-0.689362,1.115387 1.735626,2.684509 5.388855,3.486877c3.653229,0.802399 6.642242,2.444366 6.642242,3.648804c0,2.747223 3.783081,6.552429 11.59021,11.65802c3.339081,2.183685 6.071045,4.920471 6.071045,6.081757c0,2.849915 5.737091,8.419037 8.672943,8.419037c1.300964,0 2.365356,1.986908 2.365356,4.415314c0,2.428436 0.974548,4.415314 2.165619,4.415314c1.191071,0 2.78894,2.483612 3.550812,5.519165c0.761871,3.035522 2.20401,5.519135 3.204773,5.519135c1.000763,0 2.514313,2.188904 3.363403,4.864258c0.849152,2.675354 2.902954,6.223389 4.564087,7.884521c1.661133,1.661102 3.020233,4.439392 3.020233,6.174011c0,1.734589 0.993469,3.153809 2.207672,3.153809c1.214203,0 2.207642,2.483612 2.207642,5.519135c0,3.035522 0.948456,5.519135 2.107635,5.519135c1.15918,0 2.759918,3.477081 3.55719,7.726807c0.797241,4.249756 2.221863,7.726807 3.165833,7.726807c0.943939,0 2.368561,3.477051 3.165802,7.726807c0.797272,4.249756 2.39801,7.726807 3.55719,7.726807c1.15918,0 2.107635,5.960663 2.107635,13.245941c0,7.358856 -0.981171,13.245972 -2.207672,13.245972c-1.214203,0 -2.207642,2.018036 -2.207642,4.484589c0,2.466553 -1.573486,5.088409 -3.496613,5.826385c-2.677246,1.027344 -2.842346,1.746094 -0.70462,3.067261c1.792725,1.107971 -0.11618,2.271088 -5.334076,3.249969c-4.469269,0.83844 -8.125977,2.407318 -8.125977,3.486389c0,1.079071 -1.521332,1.961975 -3.380737,1.961975c-1.859467,0 -3.952637,1.490173 -4.65152,3.311493c-0.698944,1.821289 -2.571838,3.311462 -4.162109,3.311462c-1.59021,0 -3.238373,1.04126 -3.662567,2.313904c-0.424194,1.272583 -6.467682,2.901733 -13.429962,3.6203c-6.962219,0.718567 -12.6586,2.070923 -12.6586,3.005188c0,0.934265 -12.914795,2.412964 -28.699554,3.28595c-15.78476,0.872986 -28.699585,2.453186 -28.699585,3.511597c0,1.058411 -5.463928,1.924316 -12.14212,1.924316c-6.678162,0 -12.14212,0.993469 -12.14212,2.207703c0,1.263245 -6.666382,2.207642 -15.583893,2.207642c-9.827087,0 -15.079865,-0.815552 -14.219482,-2.207642zm28.009674,-220.066254c-1.593689,-0.637726 -3.497742,-0.559296 -4.231354,0.174255c-0.733582,0.733612 0.570313,1.255371 2.897552,1.159515c2.571808,-0.105927 3.09491,-0.629059 1.333801,-1.333771zm-162.639481,84.289063c-3.622101,-1.967529 -8.379669,-5.503052 -10.572372,-7.856659c-2.192726,-2.353607 -4.833809,-4.279266 -5.869095,-4.279266c-1.035278,0 -2.505676,-2.483612 -3.267548,-5.519135c-0.761871,-3.035553 -2.359741,-5.519165 -3.550812,-5.519165c-1.191078,0 -2.165596,-2.514771 -2.165596,-5.588409c0,-3.073669 -1.490173,-6.160278 -3.311493,-6.859192c-1.82132,-0.698914 -3.311493,-3.092712 -3.311493,-5.31955c0,-2.226868 -0.900368,-4.605316 -2.000824,-5.285431c-1.100464,-0.680115 -2.710869,-6.45108 -3.578682,-12.824341c-0.867821,-6.37323 -2.699417,-12.295746 -4.070229,-13.161102c-1.621346,-1.023499 -2.492378,-10.663361 -2.492378,-27.583313l0,-26.009888l7.726807,-2.6474c4.249741,-1.456085 6.733353,-2.759552 5.519142,-2.896637c-1.214211,-0.137054 1.269409,-1.489014 5.51915,-3.004364c7.889687,-2.813263 19.868919,-0.871674 19.868919,3.220337c0,1.095428 1.986893,1.991699 4.415314,1.991699c2.428421,0 4.415329,0.993439 4.415329,2.207642c0,1.214233 1.071869,2.207672 2.381943,2.207672c1.310059,0 6.852448,4.47052 12.316406,9.934448c5.463959,5.463959 10.830551,9.934479 11.925781,9.934479c1.095215,0 2.614639,2.483612 3.376511,5.519135c0.761871,3.035522 2.144012,5.519165 3.071396,5.519165c0.927399,0 2.321609,3.973785 3.098251,8.830627c0.776642,4.856842 2.374863,8.830627 3.55159,8.830627c1.176727,0 2.762848,2.483612 3.524719,5.519135c0.761871,3.035553 2.270966,5.519165 3.353546,5.519165c1.082581,0 1.968338,1.986877 1.968338,4.415314c0,2.428436 0.993439,4.415314 2.207657,4.415314c1.286423,0 2.207657,7.31543 2.207657,17.530975c0,9.642029 -0.993454,18.144958 -2.207657,18.895386c-1.214218,0.750427 -2.207657,3.351288 -2.207657,5.779724c0,2.428406 -0.993439,3.801331 -2.207672,3.050903c-1.214203,-0.750427 -2.207642,0.215576 -2.207642,2.146667c0,1.931091 -1.738541,4.152496 -3.863419,4.936462c-2.124863,0.783997 -4.495743,2.367584 -5.268616,3.519073c-0.772858,1.151489 -8.223709,2.5242 -16.557434,3.050446c-11.225327,0.708893 -16.858963,0.029755 -21.737839,-2.620544zm311.013443,-6.417542c-0.65686,-1.711761 -3.539795,-3.700928 -6.406555,-4.420471c-2.86673,-0.719482 -5.909058,-3.541107 -6.760773,-6.270264c-0.851685,-2.729187 -2.159698,-5.458832 -2.906708,-6.065948c-4.401459,-3.577118 -6.87735,-12.753143 -6.87735,-25.488403c0,-9.988739 -0.756531,-14.04245 -2.427917,-13.009491c-1.765442,1.091125 -1.765442,0.262695 0,-3.036041c1.335358,-2.495148 2.427917,-8.088715 2.427917,-12.430176c0,-5.161591 1.528137,-9.201965 4.415314,-11.674042c2.428436,-2.079285 4.430542,-6.291687 4.449127,-9.360931c0.029572,-4.882141 4.259827,-15.03418 4.347717,-10.433929c0.085358,4.468597 11.072083,-10.750946 11.072083,-15.337799c0,-3.286011 1.295227,-5.196777 3.522614,-5.196777c1.937439,0 6.32782,-1.997498 9.756409,-4.438843c10.230042,-7.284454 46.327759,-5.588531 46.327759,2.176544c0,1.244263 1.330719,2.262299 2.957123,2.262299c3.090271,0 8.081177,8.926514 8.081177,14.453644c0,1.764191 0.993469,3.207611 2.207642,3.207611c1.331604,0 2.207703,9.198608 2.207703,23.18042c0,12.749237 -0.866516,23.18042 -1.925537,23.18042c-1.059021,0 -2.571777,4.041504 -3.361633,8.98111c-0.820984,5.134003 -3.778809,11.323853 -6.905151,14.450134c-3.007935,3.007965 -5.468964,6.914001 -5.468964,8.680145c0,1.766113 -0.993469,3.211151 -2.207672,3.211151c-1.214203,0 -2.207672,1.521332 -2.207672,3.380737c0,1.859467 -1.392273,3.91507 -3.093933,4.568054c-1.70166,0.652985 -3.594879,3.102783 -4.207092,5.44397c-0.612244,2.341217 -3.442108,5.18985 -6.288605,6.330322c-3.059692,1.225891 -3.821686,2.194244 -1.863983,2.368713c9.287445,0.827637 -7.399261,4.10791 -21.593933,4.244904c-11.903503,0.114929 -16.384735,-0.652435 -17.269104,-2.957062zm-360.374535,-100.647705c0,-3.035522 0.501076,-4.277313 1.113518,-2.759552c0.612427,1.517761 0.612427,4.001373 0,5.519135c-0.612442,1.517761 -1.113518,0.27597 -1.113518,-2.759583zm139.439751,-1.56369c0.821411,-1.329102 -1.241547,-2.848358 -4.846741,-3.569397c-7.152527,-1.430511 -22.351013,-15.177185 -22.351013,-20.215973c0,-1.842773 -0.932571,-3.350494 -2.072372,-3.350494c-1.139832,0 -2.741272,-4.460358 -3.558792,-9.911911c-0.817505,-5.451569 -2.368546,-9.366714 -3.446762,-8.700348c-1.078186,0.666367 -1.960358,-1.886017 -1.960358,-5.671967c0,-4.026871 -0.916183,-6.317322 -2.207672,-5.51915c-1.29248,0.798798 -2.270737,-1.66394 -2.359818,-5.940781c-0.475784,-22.84111 -2.161819,-56.702209 -3.084381,-61.944717c-0.587616,-3.339081 -0.099777,-6.07106 1.084091,-6.07106c1.183838,0 2.152466,-3.038971 2.152466,-6.753265c0,-3.940002 0.919647,-6.184891 2.207642,-5.388855c1.214233,0.750427 2.207672,-0.184387 2.207672,-2.077362c0,-1.892975 1.490158,-3.441772 3.311478,-3.441772c1.82132,0 3.311493,-1.59787 3.311493,-3.550827c0,-2.68515 1.34552,-3.213104 5.51915,-2.165604c4.07283,1.022232 5.51915,0.506424 5.51915,-1.968323c0,-3.819305 8.86203,-4.570984 14.931641,-1.266495c2.108398,1.147873 7.558868,2.68306 12.112167,3.411514c4.553299,0.728455 8.278717,2.196487 8.278717,3.262283c0,2.417557 12.952103,15.523392 15.341263,15.523392c0.965637,0 2.377808,3.890472 3.138153,8.645477c0.760376,4.75502 2.12915,8.977173 3.041748,9.382553c0.912567,0.40538 3.646149,4.647491 6.074554,9.42691c3.84317,7.563782 4.389587,12.81102 4.216675,40.493073c-0.11615,18.593521 -1.118164,32.406494 -2.412445,33.255646c-1.21756,0.798859 -2.831299,4.628479 -3.586121,8.510315c-1.550232,7.972412 -7.659302,16.122559 -12.084961,16.122559c-1.623138,0 -2.436783,0.832275 -1.808075,1.849487c0.628662,1.017242 -3.534836,2.934448 -9.252289,4.260437c-5.717407,1.325989 -12.296799,3.146149 -14.620865,4.0448c-2.729416,1.055389 -3.719177,0.814545 -2.795395,-0.680145zm122.923004,-18.305237c0,-1.214203 -1.738525,-2.224823 -3.863373,-2.245789c-5.304352,-0.052368 -13.797882,-9.473633 -13.797882,-15.304993c0,-2.632507 -0.993439,-4.172394 -2.207642,-3.421951c-1.434052,0.886276 -2.207672,-10.15683 -2.207672,-31.512817c0,-18.082474 -0.685486,-33.562698 -1.523285,-34.400513c-0.837799,-0.837814 -1.253754,-6.715698 -0.924286,-13.061981c0.620941,-11.96109 7.188385,-25.888474 12.207733,-25.888474c1.527374,0 3.967163,-2.611984 5.421753,-5.804428c1.454559,-3.192429 3.213257,-5.23584 3.908173,-4.540909c0.694946,0.694931 4.605743,-0.527817 8.690704,-2.717209c8.025848,-4.30159 26.72876,-4.822372 29.259003,-0.814728c0.804749,1.274612 6.387421,2.802628 12.405945,3.395584c6.018555,0.592957 11.354523,2.313263 11.857758,3.822922c0.503204,1.509628 2.781433,4.342957 5.062714,6.296249c2.281281,1.953293 4.147766,4.738052 4.147766,6.188339c0,1.450272 1.216644,3.042419 2.703644,3.538101c3.736816,1.24559 3.954773,60.737427 0.230957,63.039261c-1.421478,0.878677 -3.2677,4.319641 -4.102692,7.646561c-0.835022,3.32692 -2.325012,6.048935 -3.311127,6.048935c-0.986115,0 -2.44751,2.980331 -3.247559,6.622986c-0.800079,3.642639 -2.369171,6.622971 -3.486908,6.622971c-1.117737,0 -2.032257,1.537598 -2.032257,3.416901c0,4.158875 -10.480591,14.244354 -14.802429,14.244354c-1.715698,0 -2.572723,0.884521 -1.904602,1.965607c0.668121,1.081055 -2.253571,2.616241 -6.492706,3.411499c-4.239105,0.795288 -7.707458,2.394379 -7.707458,3.553558c0,1.15921 -5.463959,2.107635 -12.14212,2.107635c-6.678192,0 -12.142151,-0.993439 -12.142151,-2.207672zm20.466827,-147.03923c0.733612,-0.733582 2.637695,-0.812012 4.231354,-0.174286c1.761139,0.70475 1.238007,1.227859 -1.333801,1.333801c-2.327209,0.095856 -3.631104,-0.425926 -2.897552,-1.159515z"/>
  </g>
 </g>
</svg>